<?xml version="1.0" standalone="no"?>
<!DOCTYPE svg PUBLIC "-//W3C//DTD SVG 1.1//EN" "http://www.w3.org/Graphics/SVG/1.1/DTD/svg11.dtd" >
<svg xmlns="http://www.w3.org/2000/svg">
<metadata>
Created by FontForge 20120731 at Tue Jun  6 11:47:49 2017
 By admin
</metadata>
<defs>
<font id="iconfont" horiz-adv-x="1024" >
  <font-face 
    font-family="iconfont"
    font-weight="500"
    font-stretch="normal"
    units-per-em="1024"
    panose-1="2 0 6 3 0 0 0 0 0 0"
    ascent="896"
    descent="-128"
    x-height="792"
    bbox="0 -212 1024 896"
    underline-thickness="0"
    underline-position="0"
    unicode-range="U+0078-E947"
  />
<missing-glyph 
 />
    <glyph glyph-name=".notdef" 
 />
    <glyph glyph-name=".notdef" 
 />
    <glyph glyph-name=".null" horiz-adv-x="0" 
 />
    <glyph glyph-name="nonmarkingreturn" horiz-adv-x="341" 
 />
    <glyph glyph-name="x" unicode="x" horiz-adv-x="1001" 
d="M281 543q-27 -1 -53 -1h-83q-18 0 -36.5 -6t-32.5 -18.5t-23 -32t-9 -45.5v-76h912v41q0 16 -0.5 30t-0.5 18q0 13 -5 29t-17 29.5t-31.5 22.5t-49.5 9h-133v-97h-438v97zM955 310v-52q0 -23 0.5 -52t0.5 -58t-10.5 -47.5t-26 -30t-33 -16t-31.5 -4.5q-14 -1 -29.5 -0.5
t-29.5 0.5h-32l-45 128h-439l-44 -128h-29h-34q-20 0 -45 1q-25 0 -41 9.5t-25.5 23t-13.5 29.5t-4 30v167h911zM163 247q-12 0 -21 -8.5t-9 -21.5t9 -21.5t21 -8.5q13 0 22 8.5t9 21.5t-9 21.5t-22 8.5zM316 123q-8 -26 -14 -48q-5 -19 -10.5 -37t-7.5 -25t-3 -15t1 -14.5
t9.5 -10.5t21.5 -4h37h67h81h80h64h36q23 0 34 12t2 38q-5 13 -9.5 30.5t-9.5 34.5q-5 19 -11 39h-368zM336 498v228q0 11 2.5 23t10 21.5t20.5 15.5t34 6h188q31 0 51.5 -14.5t20.5 -52.5v-227h-327z" />
    <glyph glyph-name="return3" unicode="&#xe600;" horiz-adv-x="1000" 
d="M920 174q-16 0 -19 16q-2 7 -6 19t-21.5 43.5t-41.5 57.5q-109 114 -319 119v-162q0 -12 -11 -17.5t-21 1.5l-383 277q-9 6 -9 16.5t9 16.5l383 279q10 7 21 1.5t11 -17.5v-173q58 -2 117 -18q120 -31 196 -109q118 -119 114 -330q0 -8 -5 -13.5t-13 -6.5h-2zM493 470
q133 0 233 -42q81 -33 136 -93q17 -18 31 -38q-20 122 -95 199q-38 38 -86.5 64t-94.5 35.5t-72 13t-47 3.5q-3 0 -5 -1v0q-8 0 -14 6t-6 14v153l-330 -239l330 -239v144q0 8 5.5 14t14.5 6z" />
    <glyph glyph-name="home" unicode="&#xe62f;" 
d="M980 283q0 16 -14 30l-419 409q-15 14 -35.5 14t-34.5 -14l-419 -409q-17 -17 -14 -32v-3q0 -9 6 -15t15 -6h110q-4 -9 -4 -21v-353q0 -18 12.5 -30t30.5 -12h596q18 0 30.5 12t12.5 30v353q0 13 -3 21h109q9 0 15.5 6t6.5 15q0 3 -1 5zM810 -76q0 -17 -12.5 -29
t-29.5 -12h-511q-18 0 -30.5 12t-12.5 29v354v0q0 9 -6.5 15t-14.5 6h-85l369 361q14 14 34.5 14t35.5 -14l369 -361h-85q-8 0 -14.5 -6t-6.5 -15v0v-354z" />
    <glyph glyph-name="return2" unicode="&#xe61b;" 
d="M461 641v-140h34q176 -2 276 -81t125 -237q-26 31 -56.5 55t-57 39.5t-60 26.5t-57.5 16.5t-59.5 8t-55 3t-55.5 0.5h-34v-139l-316 224zM495 707l-409 -290l409 -290v171q43 0 70.5 -1t66.5 -6t67 -14.5t63 -26.5t63 -42t58 -62.5t57 -85.5q0 39 -2.5 72.5t-12.5 84
t-27.5 91t-51 84.5t-79 73.5t-115.5 49t-157 20.5v172z" />
    <glyph glyph-name="arrow-right" unicode="&#xe688;" 
d="M307.5 681.5q-6.5 -6.5 -6.5 -16t6 -15.5l362 -362l-362 -362q-6 -6 -6 -15.5t6.5 -16t16 -6.5t15.5 6l378 378q1 2 3 4q1 2 2 5q1 2 1 5q1 5 -1 9q-1 3 -2 5q-2 2 -3 4l-378 378q-6 6 -15.5 6t-16 -6.5z" />
    <glyph glyph-name="add" unicode="&#xe62b;" 
d="M853 279q9 0 15.5 6t6.5 15t-6.5 15t-15.5 6h-682q-9 0 -15.5 -6t-6.5 -15t6.5 -15t15.5 -6h682zM491 -41q0 -9 6 -15.5t15 -6.5t15 6.5t6 15.5v682q0 9 -6 15.5t-15 6.5t-15 -6.5t-6 -15.5v-682z" />
    <glyph glyph-name="return" unicode="&#xe70d;" 
d="M371 830v-174l44 -4q262 -25 406.5 -97t152.5 -182q6 -89 -72 -191t-204 -177q160 190 114 319q-54 156 -390 177l-51 4v-134l-318 229zM393 896q-12 0 -26 -10l-344 -248q-21 -15 -21 -37.5t21 -38.5l344 -247q14 -10 26 -10t19 9.5t7 27.5v112q363 -24 355 -197
q-6 -139 -254 -366l-20 -19v0q84 20 167.5 62.5t154.5 98.5t120 122.5t71 134.5t-0.5 134t-85.5 121t-193 96t-315 58v160q0 17 -7 27t-19 10v0z" />
    <glyph glyph-name="exit-2" unicode="&#xe626;" 
d="M512 -128q-94 0 -179.5 36.5t-147.5 98.5t-98.5 147.5t-36.5 179.5q0 129 67 239t182 170q10 6 21.5 2.5t17 -14t2 -22t-14.5 -16.5q-100 -53 -158.5 -149.5t-58.5 -209.5q0 -110 54 -203t147 -147.5t203 -54.5t203 54.5t147 147.5t54 203q0 116 -60.5 213.5
t-164.5 149.5q-11 5 -15 16t1.5 22t16.5 14.5t22 -1.5q119 -59 188.5 -170t69.5 -244q0 -94 -36.5 -179.5t-98.5 -147.5t-147.5 -98.5t-179.5 -36.5zM512 347q-12 0 -20.5 8.5t-8.5 20.5v491q0 12 8.5 20.5t20.5 8.5t20.5 -8.5t8.5 -20.5v-491q0 -12 -8.5 -20.5t-20.5 -8.5z
" />
    <glyph glyph-name="xiaoxi" unicode="&#xe607;" 
d="M587 671q-10 4 -18 -3l-259 -229h-148q-7 0 -12 -5t-5 -12v-268q0 -7 5 -12t12 -5h144q7 0 12 5t5 12v252q2 1 4 3l237 209v-653l-161 138q-91 78 -94 76q-10 -7 -19 -23q-1 -2 16 -16q7 -6 17.5 -14.5t20 -16.5t18 -15.5t14 -12l5.5 -4.5l10 -8l178 -153q5 -4 11 -4
q4 0 7 1q10 5 10 16v726q0 11 -10 16v0zM290 171h-115v234h115v-234v0zM748 292q0 -39 -24 -69.5t-61 -40.5h-4q-13 0 -16 12q-2 7 1.5 13t10.5 8q26 7 42.5 28.5t16.5 48.5t-16.5 48.5t-42.5 28.5q-7 2 -10.5 8t-2 12.5t7.5 10t13 2.5q37 -10 61 -40.5t24 -69.5v0zM865 292
q0 -67 -34 -124t-93 -89q-4 -2 -8 -2q-10 0 -14 9q-4 6 -2 12.5t8 9.5q51 28 80 77t29 107q0 57 -29.5 106.5t-79.5 77.5q-6 3 -8 9.5t1 12.5t9.5 8t13.5 -1q59 -32 93 -89t34 -124v0z" />
    <glyph glyph-name="user" unicode="&#xe622;" 
d="M512 198q-127 0 -217 90t-90 217t90 217t217 90t217 -90t90 -217t-90 -217t-217 -90zM512 744q-99 0 -169 -70t-70 -169t70 -169t169 -70t169 70t70 169t-70 169t-169 70zM921.5 -212q-14.5 0 -24.5 10t-10 24q0 184 -95.5 280t-279.5 96t-279.5 -96t-95.5 -280
q0 -14 -10 -24t-24.5 -10t-24.5 10t-10 24q0 212 116 328t328 116t328 -116t116 -328q0 -14 -10 -24t-24.5 -10z" />
    <glyph glyph-name="icon066" unicode="&#xe64c;" 
d="M861 -42h-701q-40 0 -68.5 29.5t-28.5 72.5v444q0 42 28.5 72t68.5 30h701q40 0 68.5 -30t28.5 -72v-444q0 -43 -28.5 -72.5t-68.5 -29.5zM160 569q-25 0 -42.5 -19t-17.5 -46v-444q0 -27 17.5 -46t42.5 -19h701q25 0 42.5 19t17.5 46v444q0 27 -17.5 46t-42.5 19h-701z
M510 248q-5 0 -10 3l-411 290q-6 4 -7.5 11.5t3 13.5t12 7.5t13.5 -2.5l411 -290q6 -4 7.5 -11.5t-2.5 -13.5q-6 -8 -16 -8zM511 248q-10 0 -16 8q-4 6 -2.5 13.5t7.5 11.5l411 290q6 4 13.5 2.5t12 -7.5t3 -13.5t-7.5 -11.5l-411 -290q-5 -3 -10 -3z" />
    <glyph glyph-name="user1" unicode="&#xe6c3;" 
d="M770 -154h-203h-35v0h-448q-8 0 -13.5 5.5t-5.5 13.5v22q-2 39 21 79q21 36 59 61q46 30 115 42h1q26 2 71 14q28 7 45 15t20 11.5t3 4.5l2 4q2 10 -1 40q-3 33 -16 62.5t-24 44t-31 37.5q-18 20 -25 30q-29 42 -31 91v1q0 18 17 35h1v0.5v0.5q0 1 -1 7v3q-13 69 -1 138
q2 50 48 92v0q12 10 17 18q1 1 1 2q-1 1 -1 2q-6 14 -4 25q3 18 24 24q7 1 21 2h1q44 3 71 1q49 -4 91.5 -14t67.5 -20t45 -22.5t25.5 -17.5t8.5 -8l1 -1q21 -25 31 -62q3 -11 4 -20q7 -40 4 -97q-2 -20 -5 -45q-1 -5 0 -6q0 -1 1.5 -2l1.5 -1q9 -10 12 -19q2 -7 2 -15v-1
q-3 -49 -32 -91q-7 -10 -24 -30q-21 -23 -32 -37.5t-24 -44t-16 -62.5q-2 -28 0 -40q1 -2 1 -4q0 -1 3.5 -4.5t20.5 -11.5t44 -15q45 -12 72 -14v-1q70 -12 117 -43q38 -24 58 -60q23 -39 21 -78v-22q0 -8 -5.5 -13.5t-13.5 -5.5h-178q-8 0 -13.5 5.5t-5.5 13t5.5 13
t13.5 5.5h159v5v2q2 28 -16 58q-17 27 -47 47q-40 25 -101 37q-38 5 -75 15q-83 21 -94 54q-7 14 -3 61q3 38 18.5 72.5t28 51t34.5 41.5q16 19 21 26q22 32 25 71v4l-4 4q-2 2 -4 5q-12 14 -8 35q3 23 4 42q3 53 -3 89v0.5v0.5q-1 7 -4 15q-7 29 -23 48q-15 15 -46 30
q-66 31 -167 39q-24 2 -66 0h-1q-4 0 -8 -1q6 -14 3 -25q-2 -6 -6 -12q-8 -12 -24 -26q-35 -31 -36 -67v-2q-11 -63 1 -127v-2q6 -27 -11 -42v-1q-5 -4 -6 -5v0v-2q3 -40 25 -71q5 -7 22 -26q22 -25 34.5 -41.5t27.5 -51.5t19 -72q4 -47 -3 -61q-12 -33 -94 -54
q-33 -9 -76 -16q-60 -10 -99 -35q-31 -20 -47 -47q-19 -31 -18 -60v-1v-4h429h36v0h23h193zM625 124l1 -1l-1 1v0zM406 124q0 -1 -1 -1q1 0 1 1v0zM406 124z" />
    <glyph glyph-name="sum" unicode="&#xe947;" 
d="M657 -55h-290q-21 0 -32 0.5t-29 2t-27.5 5t-22 10.5t-19 17t-11 25.5t-4.5 34.5q0 70 13 134.5t40 127.5t75 117.5t114 93.5h96q242 -142 242 -473q0 -19 -4.5 -34.5t-11 -25.5t-19 -17t-22 -10.5t-27.5 -5t-29 -2t-32 -0.5zM535 369v49h-48v-49q-36 -6 -54 -28.5
t-18 -51.5q0 -34 15 -53.5t36.5 -25t43 -9t36.5 -11.5t15 -26q0 -10 -13 -20.5t-36 -10.5q-25 0 -39.5 8.5t-16.5 17.5l-2 9l-39 -20v-6.5t3.5 -12.5t10 -17t21.5 -15.5t36 -9.5v-50h49v50q37 6 55 28t18 52q0 34 -15 53t-36 25t-42.5 9t-36.5 10.5t-15 24.5v2q0 6 1 11
t4.5 12.5t13.5 11.5t26 4q17 0 30 -4.5t18.5 -10.5t9 -12t3.5 -10v-4l39 20q0 2 -0.5 5.5t-4.5 12.5t-11 16.5t-21.5 15t-35.5 10.5zM560 561h-96q-19 42 -38.5 72t-31.5 40.5t-19.5 18t-7.5 12.5q0 47 25 47h23v29q0 8 6 13.5t15 5.5h153q8 0 14 -5.5t6 -13.5v-29h22
q26 0 26 -47q0 -6 -7.5 -13.5t-19.5 -18t-31.5 -40t-38.5 -71.5z" />
    <glyph glyph-name="arrow-l2" unicode="&#xe61c;" 
d="M364 423q-20 -18 -20 -44t21 -44l309 -271q7 -6 15.5 -5.5t14.5 7.5t5.5 15.5t-7.5 14.5l-309 271q-14 12 -1 24l310 281q7 6 7.5 15t-5.5 15.5t-15 7t-15 -5.5z" />
    <glyph glyph-name="exit" unicode="&#xe699;" 
d="M859 423l-262 262q-6 6 -14.5 6t-14.5 -6.5t-6 -15t6 -14.5l226 -226h-439q-8 0 -14.5 -6t-6.5 -14.5t6.5 -15t14.5 -6.5h439l-226 -226q-6 -6 -6 -14.5t6 -14.5t14.5 -6t14.5 6l262 262q6 6 6 14.5t-6 14.5zM388 155v0h-158q-5 0 -9 0.5t-7 1t-5 1t-3.5 2.5t-2 2.5t-1 4
t-0.5 4.5v6.5v7.5v453q0 17 4.5 20t26.5 3h155v0q8 0 14 6t6 15t-6 15t-14 6v0h-181q-19 0 -32.5 -13.5t-13.5 -32.5v-497q0 -19 13.5 -32.5t32.5 -13.5h181q8 0 14 6t6 14.5t-6 14.5t-14 6z" />
    <glyph glyph-name="arrow-l" unicode="&#xe609;" 
d="M294 384q0 -11 7 -19v0v0l385 -421q7 -8 17.5 -8t17.5 8t7 19.5t-7 19.5l-367 401l367 402q7 8 7 19t-7 19t-17.5 8t-17.5 -8l-385 -421q-7 -8 -7 -19v0z" />
    <glyph glyph-name="xiaoxi1" unicode="&#xe6db;" 
d="M839 83q-12 0 -18 10q-4 7 -2 15t10 13q70 41 112 112q42 72 42 157q0 84 -42 157q-40 70 -110 111q-7 5 -9 13t2 15t12 9t16 -2q78 -47 124 -126q48 -82 48 -177q0 -96 -48 -178q-47 -80 -127 -126q-5 -3 -10 -3v0v0v0zM732 214q-11 0 -17 10q-5 7 -2.5 15t9.5 13
q36 21 58 57q21 37 21 80.5t-21 80.5q-21 36 -57 57q-7 5 -9 13t2.5 15t12.5 9t15 -2q45 -27 71 -72q27 -46 27 -100q0 -55 -28 -101q-26 -46 -72 -72q-5 -3 -10 -3v0v0v0zM575 -61q-38 0 -78 28l-39 27q-7 5 -8.5 13.5t3.5 15t13 8t15 -3.5l39 -27q12 -9 31.5 -16.5
t32.5 -3.5q5 2 7 4t4.5 11.5t3.5 26.5v734q-1 17 -4.5 26t-6 11.5t-8.5 5.5q-12 5 -30 -2.5t-29 -16.5l-242 -181q-24 -20 -58 -30.5t-50 -11.5t-28 0q-38 0 -67 -26t-34 -64l-2 -14v-127l2 -14q5 -38 34 -64t67 -26h3q69 0 130 -40q5 -3 12 -8t24.5 -21t34 -33t35 -44
t31.5 -54q3 -8 0.5 -16t-10.5 -11.5t-15.5 -0.5t-11.5 11q-18 39 -50 76t-47 49t-25 19q-6 4 -17 10t-39.5 14.5t-53.5 8.5v0q-54 0 -95 36t-47 90v0l-2 16v131l2 16q6 54 46.5 90t94.5 36h2q69 0 109 33l1 1l241 180q14 12 31 19q40 19 70 6q19 -9 28 -24q12 -18 14 -54
v-736q0 -20 -2.5 -33t-12.5 -27t-27 -20q-10 -3 -22 -3v0v0v0zM575 -61z" />
    <glyph glyph-name="psw" unicode="&#xe616;" 
d="M763 499h-28v108q0 99 -63.5 165.5t-160.5 66.5t-159.5 -67t-62.5 -165v-108h-28q-46 0 -78.5 -33t-32.5 -80v-339q0 -47 32.5 -80t78.5 -33h502q46 0 78.5 33t32.5 80v339q0 47 -32.5 80t-78.5 33zM345 607q0 74 46 124.5t120 50.5t121 -50t47 -125v-108h-334v108z
M818 47q0 -23 -16 -39.5t-39 -16.5h-502q-23 0 -39 16.5t-16 39.5v339q0 24 16 40.5t39 16.5h502q23 0 39 -16.5t16 -40.5v-339zM512 330q-23 0 -39.5 -16.5t-16.5 -40.5q0 -32 28 -49v-92q0 -12 8 -20t20 -8t20 8t8 20v92q28 17 28 49q0 24 -16.5 40.5t-39.5 16.5z" />
    <glyph glyph-name="news" unicode="&#xe70e;" 
d="M959 650q0 4 -1 9q-1 10 -5 14q-3 5 -10.5 7t-13.5 2h-6h-822q-23 2 -30 -9q-4 -4 -5 -14q-1 -5 -1 -9v-5v-308v0v-212q-2 -24 6 -31q6 -5 13 -7t11 -1l4 1h327h172h327q15 -4 28 7q3 3 4.5 11t1.5 14v6v212v0v308v5zM887 644l-346 -359q-11 -12 -29 -12t-29 12l-346 359
h750zM101 629l232 -241v0l-232 -241v482zM586 124h-148h-309l229 238l99 -103q23 -24 55 -24v0v0q32 0 55 24l99 103l229 -238h-309zM923 147l-232 241v0l232 241v-482z" />
    <glyph glyph-name="huodong" unicode="&#xe654;" 
d="M673 405.5q0 60.5 -29 101t-70 62.5v167q0 28 -23 43q-13 9 -29 9q-10 0 -20 -4q-6 -3 -35 -26.5t-190 -160.5h-97q-36 0 -62.5 -25.5t-26.5 -60.5v-219q0 -35 26.5 -60t62.5 -25h89q169 -136 199 -159.5t37 -25.5q8 -3 17 -3q16 0 29 8q21 14 23 40v171q41 23 70 65
t29 102.5zM143 292v219q0 13 11 23.5t26 10.5h89v-286h-89q-15 0 -26 10t-11 23zM522 71q-1 0 -222 184v294q221 187 222 187v-665zM553 286v235q68 -37 68 -115.5t-68 -119.5zM736 226q-11 0 -19 9q-20 23 0 48q46 60 46 124q0 61 -46 123q-19 26 -1 47q11 10 21 10
q9 0 21 -9q64 -73 64 -171t-64 -171q-7 -10 -22 -10zM841 103q-11 0 -21 9q-9 11 -9 25t9 24q86 98 86 245.5t-86 245.5q-9 10 -9 24t9 24q10 10 21 10t20 -9q50 -57 77 -133t27 -161.5t-27 -161t-77 -132.5q-8 -10 -20 -10z" />
    <glyph glyph-name="arrow-r3" unicode="&#xe61e;" 
d="M313 15q-5 5 -5 12t5 12l345 344l-347 346q-5 5 -5 12t5 12t12 5t12 -5l358 -358q5 -5 5 -12t-5 -12l-356 -356q-5 -5 -12 -5t-12 5z" />
    <glyph glyph-name="zhanghu" unicode="&#xe604;" 
d="M711 674zM830 -71h-699q-46 0 -76 29q-30 30 -30 76v625q0 48 31 82.5t75 34.5h286q7 0 9.5 -6.5t-2.5 -11.5l-64 -63q-3 -3 -7 -3h-222q-53 0 -53 -20q0 -18 3 -21t18 -3h826q4 0 7 -3t3 -7v-222q0 -4 -3 -7t-7 -3h-349q-37 0 -61.5 -24.5t-24.5 -61.5v-63
q0 -37 24.5 -61t61.5 -24h349q4 0 7 -3t3 -7v-128q0 -46 -30 -76q-30 -29 -75 -29zM131 755q-36 0 -60.5 -28t-24.5 -68v-625q0 -37 24 -61t61 -24h699q37 0 61 24t24 61v117h-339q-46 0 -76 30t-30 76v63q0 47 30 76q30 30 76 30h339v202h-816q-25 0 -33 10q-8 9 -8 34
q0 26 28 35q15 5 45 5h218l43 43h-261zM989 183h-413q-32 0 -53 21t-21 53v63q0 33 21 54q21 20 53 20h413q4 0 7 -3t3 -7v-191q0 -4 -3 -7t-7 -3zM576 374q-24 0 -39 -15t-15 -39v-63q0 -24 15 -38.5t39 -14.5h402v170h-402zM639 215q-25 0 -49.5 24t-24.5 49.5t24.5 49.5
t49.5 24t49.5 -24t24.5 -49.5t-24.5 -49.5t-49.5 -24zM639.5 342q-16.5 0 -35 -18.5t-18.5 -35t18.5 -35t35 -18.5t34.5 18.5t18 35t-18 35t-34.5 18.5zM734 660v0h-349q-8 0 -10 7.5t5 11.5l300 159q4 2 8.5 0.5t5.5 -6.5l50 -158q1 -2 1 -4q0 -4 -3 -7t-8 -3zM426 680h295
l-42 134zM893 692v0h-127q-4 0 -7 3t-3 7v63q0 5 3 8t7 3h64q12 0 23.5 -8.5t17.5 -16t15.5 -22.5t14.5 -20q3 -3 3 -7q0 -10 -11 -10zM776 712h97q-1 2 -4 6q-24 37 -39 37h-54v-43z" />
    <glyph glyph-name="arrow-r2" unicode="&#xe69a;" 
d="M365 -23q-10 0 -17 7t-7 17.5t7 17.5l345 350l-345 349q-7 8 -7 18t7 17t17 7t17 -7l363 -367q7 -7 7 -17.5t-7 -17.5l-363 -367q-7 -7 -17 -7v0z" />
    <glyph glyph-name="arrow-r" unicode="&#xe601;" 
d="M385 107q-7 0 -12.5 5.5t-5.5 12.5t5 12l261 261q5 5 5 12.5t-5 12.5l-261 261q-5 5 -5 12.5t5.5 12.5t12.5 5t13 -5l260 -261q16 -15 16 -37.5t-16 -37.5l-260 -261q-6 -5 -13 -5v0z" />
  </font>
</defs>
</svg>
